<!-- icon666.com - MILLIONS vector ICONS FREE --><svg id="bold" enable-background="new 0 0 24 24" viewBox="0 0 24 24" xmlns="http://www.w3.org/2000/svg"><path d="m12 0c-6.617 0-12 5.383-12 12s5.383 12 12 12 12-5.383 12-12-5.383-12-12-12zm4.419 15.005c.391.391.391 1.023 0 1.414-.195.195-.451.293-.707.293s-.512-.098-.707-.293l-3.005-3.005-3.005 3.005c-.195.195-.451.293-.707.293s-.512-.098-.707-.293c-.391-.391-.391-1.023 0-1.414l3.005-3.005-3.005-3.005c-.391-.391-.391-1.023 0-1.414s1.023-.391 1.414 0l3.005 3.005 3.005-3.005c.391-.391 1.023-.391 1.414 0s.391 1.023 0 1.414l-3.005 3.005z" fill="#000000" style="fill: rgb(203, 42, 42);"></path></svg>